PathFileType	4	(X/Y/Z)	C:/Users/beibeiliu/ov580/test_trc/User2\sequence.1_training_dense_right.trc
DataRate	CameraRate	NumFrames	NumMarkers	Units	OrigDataRate	OrigDataStartFrame	OrigNumFrames
120	120	10	19	mm	120	101	200
Frame#	Time	ThumbCMC			ThumbMCP			ThumbIP			ThumbTip			IndexMCP			IndexPIP			IndexTip			MiddleMCP			MiddlePIP			MiddleTip			RingMCP			RingPIP			RingTip			PinkyMCP			PinkyPIP			PinkyTip			BackHand1			BackHand2			BackHand3	
		X0	Y0	Z0	X1	Y1	Z1	X2	Y2	Z2	X3	Y3	Z3	X4	Y4	Z4	X5	Y5	Z5	X6	Y6	Z6	X7	Y7	Z7	X8	Y8	Z8	X9	Y9	Z9	X10	Y10	Z10	X11	Y11	Z11	X12	Y12	Z12	X13	Y13	Z13	X14	Y14	Z14	X15	Y15	Z15	X16	Y16	Z16	X17	Y17	Z17	X18	Y18	Z18	
100	0.833333	104.525	35.169	-12.2086	113.575	53.3778	-35.7427	115.639	70.1917	-64.7992	109.925	79.6454	-89.5233	74.2675	13.6779	-90.2575	68.9177	16.7632	-119.486	57.2436	18.4869	-142.309	50.9298	-3.70079	-90.6467	34.7949	-3.71675	-118.662	20.7629	-1.70613	-144.073	31.1178	-14.9882	-75.0524	16.2537	-16.6122	-99.1488	-0.26249	-17.3577	-126.174	14.8165	-17.0641	-50.1653	-1.45679	-19.294	-69.9111	-19.18	-27.1142	-87.7811	59.6458	-15.3651	-26.4393	69.3574	-23.1135	3.74237	92.4887	-1.38846	-23.2102	
101	0.841667	101.968	42.3581	-13.7126	103.34	58.9931	-35.5989	106.808	77.8897	-66.7301	103.308	90.9061	-83.3943	81.2491	18.445	-92.3344	74.775	19.5205	-117.602	62.0963	18.3421	-145.709	59.1092	-6.76811	-93.249	46.4354	-6.91098	-118.527	29.8724	-9.27174	-149.288	43.5377	-19.9642	-79.4879	28.2517	-25.3566	-101.321	15.1007	-28.3696	-127.801	26.4868	-25.6726	-52.8857	8.61882	-33.8538	-74.4257	-2.92818	-44.672	-92.6667	67.0386	-18.5211	-23.784	79.416	-19.8295	4.7331	95.3154	2.38283	-21.9989	
102	0.85	92.6223	44.9008	-9.44492	95.0725	66.8411	-30.8134	93.4125	85.8678	-62.5787	85.3475	96.1915	-78.5871	80.8739	19.7818	-88.2294	74.9847	19.7596	-115.529	64.6496	19.0046	-143.681	66.0829	-7.62476	-91.0177	52.2163	-12.1366	-120.969	35.9857	-17.767	-150.549	51.5607	-25.4005	-77.4391	40.6618	-31.4296	-102.13	29.4635	-37.1007	-128.589	36.0689	-36.6406	-57.4653	22.0029	-46.0964	-75.6238	12.5729	-58.1294	-93.6828	74.5422	-19.3171	-29.6977	86.2043	-21.1305	5.71286	96.8852	6.71355	-19.9442	
103	0.858333	84.6936	51.9653	-4.04587	80.7185	71.2121	-25.4395	74.9462	88.9516	-54.2649	67.5765	101.893	-77.7325	78.0421	23.3071	-89.0472	73.3647	27.5959	-117.295	65.3743	27.3464	-144.377	69.6965	-5.68167	-90.3012	59.4315	-7.12627	-121.901	48.3749	-12.6861	-149.589	61.6997	-24.6244	-81.9959	52.5064	-32.8122	-102.902	43.8394	-39.7402	-129.881	47.969	-43.1798	-59.2702	39.4997	-51.3083	-78.3146	34.7054	-64.396	-98.0485	80.6867	-18.9814	-28.016	92.3856	-16.0587	4.65992	97.9245	17.766	-18.0357	
104	0.866667	71.5116	52.2417	0.749908	66.3399	79.1069	-21.1	55.8623	92.4414	-49.7329	45.2414	102.826	-67.9805	76.2776	37.7695	-83.6442	71.6828	39.346	-114.087	64.2762	33.725	-140.335	75.7787	8.09341	-92.7619	66.9571	-0.509037	-120.059	58.6061	-7.79248	-149.058	71.0386	-19.3399	-81.87	65.7063	-24.3873	-107.461	59.0606	-35.4952	-133.223	62.6542	-38.548	-59.3261	56.1269	-50.6703	-81.5533	56.4293	-61.4863	-106.824	87.8444	-10.2276	-24.3968	95.3	-9.47128	7.21789	92.3741	22.9788	-13.4768	
105	0.875	61.6823	58.0839	4.02279	49.3352	82.1664	-14.7191	36.1008	97.8226	-44.3482	24.521	104.299	-64.1919	71.0193	48.409	-81.5379	66.6139	51.1053	-107.871	62.1853	48.8246	-134.362	78.0501	19.3207	-89.0482	73.3088	13.8005	-116.053	67.8667	7.9531	-148.844	79.309	-4.90726	-83.7306	76.7687	-10.5524	-108.209	75.1885	-17.0339	-132.169	75.3777	-28.9103	-61.279	73.5753	-39.2662	-87.7891	76.4972	-48.3015	-107.612	90.3297	1.11172	-25.8797	98.3726	4.14965	7.24873	86.9728	37.1159	-12.6249	
106	0.883333	46.9899	63.0469	11.4105	30.6214	81.3208	-6.7778	15.0442	93.7132	-37.1045	1.63201	97.1685	-54.3004	63.1215	56.7072	-75.6992	60.0592	60.4461	-100.195	56.8083	62.0182	-130.629	78.4095	32.8695	-85.3703	76.834	31.3125	-115.816	74.6721	28.1597	-149.146	85.5537	12.0736	-79.5916	85.6702	7.61832	-103.012	86.1565	5.99977	-130.082	86.8246	-15.7702	-58.1135	91.2293	-25.2102	-86.9307	97.243	-30.4445	-105.556	95.0369	11.9799	-22.9328	100.32	13.0958	11.4029	80.6928	46.999	-8.12654	
107	0.891667	28.6302	55.7329	17.3513	9.74159	66.4313	-3.68571	-9.42147	78.546	-31.8625	-24.8755	82.8887	-50.0737	47.7287	69.5327	-66.7096	42.1232	77.1454	-94.3932	41.1838	78.626	-124.845	71.5697	56.1375	-78.9535	71.1329	57.9244	-107.85	75.2963	56.048	-137.696	86.2924	35.0428	-72.6138	94.0656	33.9194	-100.217	93.6196	38.3827	-125.707	98.0805	7.51049	-58.0211	105.081	6.1386	-80.1633	113.825	8.2677	-105.501	91.2957	29.1903	-17.5498	93.7883	31.9703	13.596	66.4967	55.807	1.26607	
108	0.9	16.9506	43.0045	19.2872	-9.20707	53.0152	-1.24398	-32.3808	59.6066	-25.6537	-42.6523	59.1436	-48.238	31.4521	70.0481	-60.5644	25.3094	78.4181	-90.7473	21.768	83.0545	-118.2	56.6847	66.4267	-66.8499	61.7981	72.9095	-99.3162	60.641	79.81	-130.007	80.5891	53.6926	-67.9618	88.7672	58.5657	-91.4929	92.2057	66.7088	-119.903	98.8053	29.9736	-54.7716	106.389	33.0103	-74.7613	119.912	39.7516	-97.2045	83.083	41.0416	-11.7033	82.0919	43.8858	19.4267	51.2669	59.5124	6.29133	
109	0.908333	6.7141	37.555	20.7881	-16.5063	41.3135	3.03198	-40.0909	45.236	-27.2185	-51.0149	43.1348	-48.4707	18.2281	64.9211	-57.4256	12.2852	71.0463	-84.987	9.25944	77.6811	-116.605	48.8993	66.7507	-70.0957	44.6558	74.4213	-97.0768	50.4789	83.0826	-125.511	74.5318	55.2473	-64.2773	79.4562	62.3503	-85.9333	81.6975	72.9443	-113.548	90.6225	37.0639	-49.9478	103.599	42.6359	-72.6438	112.528	52.2511	-92.5896	73.2827	44.6193	-9.80187	76.8833	45.3809	21.6943	41.1109	53.7156	8.78114	
